<?xml version="1.0" encoding="UTF-8"?>
<svg xmlns="http://www.w3.org/2000/svg" xmlns:xlink="http://www.w3.org/1999/xlink" width="100pt" height="100pt" viewBox="0 0 100 100" version="1.1">
<g id="surface1">
<path style=" stroke:none;fill-rule:nonzero;fill:rgb(100%,100%,0%);fill-opacity:1;" d="M 25 91.667969 L 41.667969 91.667969 L 41.667969 75 L 25 75 Z M 25 91.667969 "/>
<path style=" stroke:none;fill-rule:nonzero;fill:rgb(100%,100%,0%);fill-opacity:1;" d="M 58.332031 91.667969 L 75 91.667969 L 75 75 L 58.332031 75 Z M 58.332031 91.667969 "/>
<path style=" stroke:none;fill-rule:nonzero;fill:rgb(100%,100%,0%);fill-opacity:1;" d="M 8.332031 75 L 25 75 L 25 58.332031 L 8.332031 58.332031 Z M 8.332031 75 "/>
<path style=" stroke:none;fill-rule:nonzero;fill:rgb(100%,100%,0%);fill-opacity:1;" d="M 41.667969 75 L 58.335938 75 L 58.335938 58.332031 L 41.667969 58.332031 Z M 41.667969 75 "/>
<path style=" stroke:none;fill-rule:nonzero;fill:rgb(100%,100%,0%);fill-opacity:1;" d="M 75 75 L 91.667969 75 L 91.667969 58.332031 L 75 58.332031 Z M 75 75 "/>
<path style=" stroke:none;fill-rule:nonzero;fill:rgb(100%,100%,0%);fill-opacity:1;" d="M 25 58.332031 L 41.667969 58.332031 L 41.667969 41.664062 L 25 41.664062 Z M 25 58.332031 "/>
<path style=" stroke:none;fill-rule:nonzero;fill:rgb(100%,100%,0%);fill-opacity:1;" d="M 58.332031 58.332031 L 75 58.332031 L 75 41.664062 L 58.332031 41.664062 Z M 58.332031 58.332031 "/>
<path style=" stroke:none;fill-rule:nonzero;fill:rgb(100%,100%,0%);fill-opacity:1;" d="M 8.332031 41.667969 L 25 41.667969 L 25 25 L 8.332031 25 Z M 8.332031 41.667969 "/>
<path style=" stroke:none;fill-rule:nonzero;fill:rgb(100%,100%,0%);fill-opacity:1;" d="M 41.667969 41.667969 L 58.335938 41.667969 L 58.335938 25 L 41.667969 25 Z M 41.667969 41.667969 "/>
<path style=" stroke:none;fill-rule:nonzero;fill:rgb(100%,100%,0%);fill-opacity:1;" d="M 75 41.667969 L 91.667969 41.667969 L 91.667969 25 L 75 25 Z M 75 41.667969 "/>
<path style=" stroke:none;fill-rule:nonzero;fill:rgb(100%,100%,0%);fill-opacity:1;" d="M 25 25 L 41.667969 25 L 41.667969 8.332031 L 25 8.332031 Z M 25 25 "/>
<path style=" stroke:none;fill-rule:nonzero;fill:rgb(100%,100%,0%);fill-opacity:1;" d="M 58.332031 25 L 75 25 L 75 8.332031 L 58.332031 8.332031 Z M 58.332031 25 "/>
</g>
</svg>
